<svg viewBox="0 0 24 24" xmlns="http://www.w3.org/2000/svg"><g fill="currentColor"><path d="M8.75 3.79c-3.87 1.32-6.51 4.89-6.51 8.96 0 1.28.26 2.54.76 3.7l1.37-.6c-.43-.98-.65-2.03-.65-3.11 0-3.42 2.22-6.42 5.49-7.55l-.49-1.42Zm6 1.41c3.26 1.12 5.49 4.12 5.49 7.54 0 .91-.16 1.81-.47 2.66l1.4.51c.36-1.02.55-2.08.55-3.18 0-4.07-2.65-7.64-6.51-8.97l-.49 1.41Zm1.37 14.46c-1.25.7-2.66 1.07-4.14 1.07 -1.48 0-2.89-.38-4.14-1.08l-.74 1.3c1.46.82 3.13 1.26 4.86 1.26 1.73 0 3.39-.45 4.86-1.27l-.74-1.31Z"/><path d="M14.25 5c0 1.24-1.01 2.25-2.25 2.25 -1.25 0-2.25-1.01-2.25-2.25 0-1.25 1-2.25 2.25-2.25 1.24 0 2.25 1 2.25 2.25Zm1.5 0c0-2.08-1.68-3.75-3.75-3.75 -2.08 0-3.75 1.67-3.75 3.75 0 2.07 1.67 3.75 3.75 3.75 2.07 0 3.75-1.68 3.75-3.75Z"/><path d="M7.25 19c0 1.24-1.01 2.25-2.25 2.25 -1.25 0-2.25-1.01-2.25-2.25 0-1.25 1-2.25 2.25-2.25 1.24 0 2.25 1 2.25 2.25Zm1.5 0c0-2.08-1.68-3.75-3.75-3.75 -2.08 0-3.75 1.67-3.75 3.75 0 2.07 1.67 3.75 3.75 3.75 2.07 0 3.75-1.68 3.75-3.75Z"/><path d="M21.25 19c0 1.24-1.01 2.25-2.25 2.25 -1.25 0-2.25-1.01-2.25-2.25 0-1.25 1-2.25 2.25-2.25 1.24 0 2.25 1 2.25 2.25Zm1.5 0c0-2.08-1.68-3.75-3.75-3.75 -2.08 0-3.75 1.67-3.75 3.75 0 2.07 1.67 3.75 3.75 3.75 2.07 0 3.75-1.68 3.75-3.75Z"/></g></svg>